<svg width="136" height="32" viewBox="0 0 136 32" fill="none" xmlns="http://www.w3.org/2000/svg">
<path d="M13.4164 20.9508C13.0527 21.7706 12.9344 22.6847 12.6253 23.5233C12.4456 24.2206 11.8232 24.0387 11.4159 23.6458C8.9371 20.7834 7.05938 13.8441 9.99742 10.6233C11.4993 8.89149 12.9258 11.3181 15.5032 11.3181C18.0805 11.3181 19.526 8.90749 21.0181 10.6233C23.9574 13.8688 22.0259 20.7806 19.536 23.6458C19.1525 24.0749 18.4908 24.2021 18.3175 23.5233C18.0083 22.6847 17.8992 21.7706 17.5355 20.9508C16.726 18.9315 14.2504 19.0108 13.4164 20.9508Z" fill="#00AEF2" stroke="#00AEF2" stroke-miterlimit="10"/>
<path d="M49.436 10.416C51.132 10.416 52.46 10.928 53.42 11.952C54.396 12.976 54.884 14.376 54.884 16.152V24H50.18V16.776C50.18 16.056 49.98 15.496 49.58 15.096C49.18 14.696 48.636 14.496 47.948 14.496C47.26 14.496 46.716 14.696 46.316 15.096C45.916 15.496 45.716 16.056 45.716 16.776V24H41.012V16.776C41.012 16.056 40.812 15.496 40.412 15.096C40.028 14.696 39.492 14.496 38.804 14.496C38.1 14.496 37.548 14.696 37.148 15.096C36.748 15.496 36.548 16.056 36.548 16.776V24H31.844V10.536H36.548V12.312C36.964 11.736 37.5 11.28 38.156 10.944C38.828 10.592 39.596 10.416 40.46 10.416C41.452 10.416 42.332 10.632 43.1 11.064C43.884 11.496 44.5 12.104 44.948 12.888C45.428 12.152 46.06 11.56 46.844 11.112C47.628 10.648 48.492 10.416 49.436 10.416ZM63.7252 24.168C62.3812 24.168 61.1732 23.888 60.1012 23.328C59.0452 22.768 58.2132 21.968 57.6052 20.928C56.9972 19.888 56.6932 18.664 56.6932 17.256C56.6932 15.864 56.9972 14.648 57.6052 13.608C58.2292 12.568 59.0692 11.768 60.1252 11.208C61.1972 10.648 62.4052 10.368 63.7492 10.368C65.0932 10.368 66.2932 10.648 67.3492 11.208C68.4212 11.768 69.2612 12.568 69.8692 13.608C70.4932 14.648 70.8052 15.864 70.8052 17.256C70.8052 18.648 70.4932 19.872 69.8692 20.928C69.2612 21.968 68.4212 22.768 67.3492 23.328C66.2772 23.888 65.0692 24.168 63.7252 24.168ZM63.7252 20.088C64.3812 20.088 64.9252 19.848 65.3572 19.368C65.8052 18.872 66.0292 18.168 66.0292 17.256C66.0292 16.344 65.8052 15.648 65.3572 15.168C64.9252 14.688 64.3892 14.448 63.7492 14.448C63.1092 14.448 62.5732 14.688 62.1412 15.168C61.7092 15.648 61.4932 16.344 61.4932 17.256C61.4932 18.184 61.7012 18.888 62.1172 19.368C62.5332 19.848 63.0692 20.088 63.7252 20.088ZM77.423 6.24V24H72.719V6.24H77.423ZM79.3338 17.256C79.3338 15.864 79.5818 14.648 80.0778 13.608C80.5898 12.568 81.2778 11.768 82.1418 11.208C83.0218 10.648 83.9978 10.368 85.0698 10.368C85.9978 10.368 86.7978 10.552 87.4698 10.92C88.1418 11.288 88.6618 11.784 89.0298 12.408V10.536H93.7338V24H89.0298V22.128C88.6618 22.752 88.1338 23.248 87.4458 23.616C86.7738 23.984 85.9818 24.168 85.0698 24.168C83.9978 24.168 83.0218 23.888 82.1418 23.328C81.2778 22.768 80.5898 21.968 80.0778 20.928C79.5818 19.872 79.3338 18.648 79.3338 17.256ZM89.0298 17.256C89.0298 16.392 88.7898 15.712 88.3098 15.216C87.8458 14.72 87.2698 14.472 86.5818 14.472C85.8778 14.472 85.2938 14.72 84.8298 15.216C84.3658 15.696 84.1338 16.376 84.1338 17.256C84.1338 18.12 84.3658 18.808 84.8298 19.32C85.2938 19.816 85.8778 20.064 86.5818 20.064C87.2698 20.064 87.8458 19.816 88.3098 19.32C88.7898 18.824 89.0298 18.136 89.0298 17.256ZM101.118 12.912C101.646 12.144 102.286 11.536 103.038 11.088C103.79 10.64 104.598 10.416 105.462 10.416V15.432H104.142C103.118 15.432 102.358 15.632 101.862 16.032C101.366 16.432 101.118 17.128 101.118 18.12V24H96.4143V10.536H101.118V12.912ZM109.525 9.288C108.693 9.288 108.021 9.064 107.509 8.616C107.013 8.152 106.765 7.576 106.765 6.888C106.765 6.184 107.013 5.6 107.509 5.136C108.021 4.672 108.693 4.44 109.525 4.44C110.341 4.44 110.997 4.672 111.493 5.136C112.005 5.6 112.261 6.184 112.261 6.888C112.261 7.576 112.005 8.152 111.493 8.616C110.997 9.064 110.341 9.288 109.525 9.288ZM111.853 10.536V24H107.149V10.536H111.853ZM120.268 24.168C119.052 24.168 117.964 23.968 117.004 23.568C116.06 23.152 115.308 22.592 114.748 21.888C114.204 21.168 113.9 20.36 113.836 19.464H118.396C118.46 19.896 118.66 20.232 118.996 20.472C119.332 20.712 119.748 20.832 120.243 20.832C120.628 20.832 120.932 20.752 121.156 20.592C121.38 20.432 121.492 20.224 121.492 19.968C121.492 19.632 121.308 19.384 120.94 19.224C120.572 19.064 119.964 18.888 119.116 18.696C118.156 18.504 117.356 18.288 116.715 18.048C116.076 17.808 115.516 17.416 115.036 16.872C114.572 16.328 114.34 15.592 114.34 14.664C114.34 13.864 114.556 13.144 114.988 12.504C115.42 11.848 116.052 11.328 116.884 10.944C117.732 10.56 118.748 10.368 119.932 10.368C121.692 10.368 123.076 10.8 124.084 11.664C125.092 12.528 125.676 13.664 125.836 15.072H121.588C121.508 14.64 121.316 14.312 121.012 14.088C120.724 13.848 120.332 13.728 119.836 13.728C119.452 13.728 119.156 13.8 118.948 13.944C118.756 14.088 118.66 14.288 118.66 14.544C118.66 14.864 118.844 15.112 119.212 15.288C119.58 15.448 120.172 15.616 120.988 15.792C121.964 16 122.772 16.232 123.412 16.488C124.068 16.744 124.636 17.16 125.116 17.736C125.612 18.296 125.859 19.064 125.859 20.04C125.859 20.824 125.628 21.528 125.164 22.152C124.716 22.776 124.068 23.272 123.22 23.64C122.388 23.992 121.404 24.168 120.268 24.168Z" fill="#00AEF2"/>
</svg>
